<?xml version="1.0" encoding="UTF-8"?>
<svg xmlns="http://www.w3.org/2000/svg" width="1024" height="1024" viewBox="0 0 1024 1024">
  <defs>
    <linearGradient id="gold" x1="120" y1="0" x2="904" y2="0" gradientUnits="userSpaceOnUse">
      <stop offset="0%" stop-color="#8a6420"/>
      <stop offset="35%" stop-color="#f6dd8a"/>
      <stop offset="65%" stop-color="#c38a2a"/>
      <stop offset="100%" stop-color="#f1d37a"/>
    </linearGradient>
  </defs>

  <!-- Main mark -->
  <path d="M 287.0,598.0 L 340.0,599.0 L 343.0,590.0 L 290.0,589.0 Z M 173.0,582.0 L 166.0,586.0 L 157.0,598.0 L 156.0,611.0 L 159.0,619.0 L 171.0,630.0 L 181.0,633.0 L 196.0,632.0 L 208.0,626.0 L 217.0,613.0 L 217.0,602.0 L 212.0,591.0 L 193.0,580.0 Z M 331.0,578.0 L 346.0,579.0 L 348.0,572.0 L 333.0,572.0 Z M 847.0,502.0 L 845.0,566.0 L 879.0,568.0 L 894.0,563.0 L 900.0,554.0 L 899.0,541.0 L 893.0,534.0 L 898.0,525.0 L 895.0,509.0 L 883.0,502.0 Z M 862.0,516.0 L 878.0,515.0 L 883.0,519.0 L 880.0,527.0 L 869.0,529.0 L 870.0,540.0 L 879.0,540.0 L 884.0,544.0 L 884.0,550.0 L 880.0,554.0 L 861.0,553.0 Z M 788.0,502.0 L 789.0,516.0 L 812.0,516.0 L 813.0,520.0 L 787.0,555.0 L 786.0,567.0 L 835.0,568.0 L 836.0,554.0 L 810.0,554.0 L 809.0,551.0 L 834.0,516.0 L 836.0,503.0 Z M 726.0,502.0 L 725.0,552.0 L 729.0,561.0 L 746.0,569.0 L 758.0,569.0 L 769.0,565.0 L 775.0,559.0 L 778.0,550.0 L 778.0,503.0 L 762.0,503.0 L 762.0,548.0 L 757.0,554.0 L 749.0,555.0 L 741.0,548.0 L 741.0,503.0 Z M 583.0,502.0 L 582.0,567.0 L 628.0,568.0 L 628.0,554.0 L 598.0,553.0 L 598.0,503.0 Z M 683.0,506.0 L 668.0,501.0 L 638.0,503.0 L 638.0,567.0 L 669.0,568.0 L 683.0,563.0 L 691.0,551.0 L 691.0,518.0 Z M 655.0,516.0 L 669.0,516.0 L 675.0,521.0 L 676.0,545.0 L 670.0,553.0 L 654.0,553.0 Z M 527.0,504.0 L 521.0,509.0 L 517.0,519.0 L 517.0,550.0 L 520.0,559.0 L 526.0,565.0 L 537.0,569.0 L 551.0,569.0 L 563.0,565.0 L 572.0,550.0 L 572.0,518.0 L 568.0,509.0 L 553.0,501.0 Z M 543.0,514.0 L 552.0,516.0 L 556.0,523.0 L 556.0,547.0 L 549.0,555.0 L 539.0,555.0 L 533.0,547.0 L 533.0,522.0 L 537.0,516.0 Z M 462.0,505.0 L 455.0,514.0 L 453.0,524.0 L 455.0,556.0 L 460.0,563.0 L 470.0,568.0 L 487.0,569.0 L 498.0,566.0 L 508.0,554.0 L 508.0,531.0 L 481.0,531.0 L 481.0,543.0 L 492.0,544.0 L 493.0,550.0 L 486.0,555.0 L 477.0,555.0 L 470.0,548.0 L 470.0,521.0 L 476.0,515.0 L 488.0,515.0 L 495.0,523.0 L 508.0,523.0 L 505.0,509.0 L 490.0,501.0 L 473.0,501.0 Z M 391.0,422.0 L 338.0,431.0 L 280.0,449.0 L 246.0,465.0 L 223.0,481.0 L 207.0,497.0 L 194.0,517.0 L 141.0,526.0 L 121.0,534.0 L 112.0,543.0 L 107.0,557.0 L 102.0,591.0 L 104.0,605.0 L 112.0,610.0 L 134.0,610.0 L 141.0,587.0 L 153.0,573.0 L 173.0,563.0 L 196.0,562.0 L 212.0,567.0 L 230.0,582.0 L 237.0,597.0 L 239.0,610.0 L 252.0,610.0 L 261.0,594.0 L 308.0,561.0 L 352.0,561.0 Z M 273.0,489.0 L 271.0,515.0 L 249.0,515.0 L 240.0,522.0 L 221.0,520.0 L 224.0,504.0 L 236.0,488.0 L 270.0,486.0 Z M 359.0,609.0 L 764.0,609.0 L 767.0,597.0 L 417.0,597.0 L 449.0,471.0 L 460.0,468.0 L 674.0,469.0 L 679.0,466.0 L 680.0,456.0 L 553.0,456.0 L 555.0,444.0 L 755.0,444.0 L 758.0,432.0 L 608.0,432.0 L 610.0,421.0 L 818.0,421.0 L 821.0,411.0 L 415.0,411.0 Z" fill="url(#gold)" fill-rule="evenodd"/>

  <!-- Dark details (window / cut lines) -->
  <path d="M 655.0,517.0 L 655.0,553.0 L 670.0,552.0 L 675.0,545.0 L 674.0,521.0 L 669.0,517.0 Z M 862.0,517.0 L 862.0,553.0 L 880.0,553.0 L 883.0,550.0 L 883.0,544.0 L 879.0,541.0 L 870.0,541.0 L 868.0,529.0 L 870.0,527.0 L 880.0,526.0 L 882.0,519.0 L 878.0,516.0 Z M 543.0,515.0 L 537.0,517.0 L 534.0,522.0 L 534.0,547.0 L 536.0,552.0 L 539.0,554.0 L 549.0,554.0 L 555.0,547.0 L 555.0,523.0 L 552.0,517.0 Z M 272.0,489.0 L 270.0,487.0 L 248.0,487.0 L 236.0,489.0 L 225.0,504.0 L 222.0,520.0 L 240.0,521.0 L 249.0,514.0 L 271.0,514.0 Z" fill="#000000" fill-rule="evenodd"/>
</svg>
